<?xml version="1.0" encoding="utf-8"?>
<!-- Generator: Adobe Illustrator 23.1.0, SVG Export Plug-In . SVG Version: 6.00 Build 0)  -->
<svg version="1.1" xmlns="http://www.w3.org/2000/svg" xmlns:xlink="http://www.w3.org/1999/xlink" x="0px" y="0px"
	 viewBox="0 0 300 300" style="enable-background:new 0 0 300 300;" xml:space="preserve" width="50" height="50">
<style type="text/css">
	.st0{display:none;}
	.st1{display:inline;}
	.st2{fill:none;stroke:#000000;stroke-width:2;stroke-miterlimit:10;}
	.st3{font-family:'Poppins-Light';}
	.st4{font-size:47.3247px;}
	.st5{fill:none;stroke:#FFFFFF;stroke-width:5;stroke-miterlimit:10;}
	.st6{font-family:'Futura-Medium';}
	.st7{font-size:38.5912px;}
</style>
<g id="default" class="st0">
	<g id="XMLID_2_" class="st1">
		<g id="XMLID_4_">
			<g id="XMLID_8_">
				<path id="XMLID_9_" class="st2" d="M170.7,175.77H74.14V37.86h27.6v110.31h68.96"/>
			</g>
			<g id="XMLID_5_">
				<path id="XMLID_6_" class="st2" d="M123.24,148.17h61.26c1.92,0,3.72-0.35,5.39-1.06c1.67-0.7,3.13-1.68,4.38-2.93
					c1.25-1.25,2.23-2.71,2.93-4.38c0.7-1.67,1.06-3.46,1.06-5.39s-0.35-3.72-1.06-5.39c-0.71-1.67-1.68-3.13-2.93-4.38
					c-1.25-1.25-2.71-2.23-4.38-2.93c-1.67-0.7-3.46-1.06-5.39-1.06h-27.6c-5.71,0-11.06-1.09-16.06-3.27
					c-5-2.18-9.38-5.15-13.13-8.9c-3.75-3.75-6.72-8.14-8.9-13.18c-2.18-5.03-3.27-10.4-3.27-16.11c0-5.71,1.09-11.06,3.27-16.06
					c2.18-5,5.15-9.38,8.9-13.13s8.13-6.72,13.13-8.9c5-2.18,10.35-3.27,16.06-3.27h63.28v27.6H156.9c-1.92,0-3.72,0.35-5.39,1.06
					c-1.67,0.71-3.13,1.68-4.38,2.93c-1.25,1.25-2.23,2.71-2.93,4.38c-0.71,1.67-1.06,3.46-1.06,5.39s0.35,3.74,1.06,5.43
					c0.7,1.7,1.68,3.17,2.93,4.42c1.25,1.25,2.71,2.23,4.38,2.93c1.67,0.71,3.46,1.06,5.39,1.06h27.6c5.71,0,11.07,1.07,16.11,3.22
					c5.03,2.15,9.43,5.1,13.18,8.85c3.75,3.75,6.7,8.14,8.85,13.18c2.15,5.03,3.22,10.4,3.22,16.11c0,5.71-1.07,11.06-3.22,16.06
					c-2.15,5-5.1,9.38-8.85,13.13c-3.75,3.75-8.14,6.72-13.18,8.9c-5.03,2.18-10.4,3.27-16.11,3.27h-61.26"/>
			</g>
		</g>
		<text id="XMLID_3_" transform="matrix(1 0 0 1 34.4815 243.7321)" class="st3 st4">DESIGN CO.</text>
	</g>
</g>
<g id="alternate-color">
	<circle class="st5" cx="150" cy="148" r="111"/>
	<g id="XMLID_12_">
		<g id="XMLID_16_">
			<path id="XMLID_17_" class="st5" d="M173.45,210.45H87.4V87.55h24.6v98.31h61.45"/>
		</g>
		<g id="XMLID_13_">
			<path id="XMLID_14_" class="st5" d="M131.15,185.85h54.6c1.71,0,3.31-0.31,4.8-0.94c1.48-0.63,2.79-1.5,3.9-2.61
				c1.11-1.11,1.98-2.41,2.61-3.9c0.63-1.48,0.94-3.09,0.94-4.8s-0.31-3.31-0.94-4.8c-0.63-1.48-1.5-2.79-2.61-3.9
				c-1.11-1.11-2.41-1.98-3.9-2.61c-1.49-0.63-3.09-0.94-4.8-0.94h-24.6c-5.09,0-9.86-0.97-14.31-2.91
				c-4.46-1.94-8.36-4.59-11.7-7.93c-3.34-3.34-5.99-7.26-7.93-11.74c-1.94-4.48-2.91-9.27-2.91-14.36c0-5.08,0.97-9.86,2.91-14.31
				c1.94-4.46,4.59-8.36,7.93-11.7c3.34-3.34,7.24-5.98,11.7-7.93c4.46-1.94,9.23-2.91,14.31-2.91h56.4v24.6h-56.4
				c-1.71,0-3.31,0.31-4.8,0.94c-1.49,0.63-2.79,1.5-3.9,2.61c-1.11,1.11-1.99,2.41-2.61,3.9c-0.63,1.49-0.94,3.09-0.94,4.8
				c0,1.71,0.31,3.33,0.94,4.84c0.63,1.51,1.5,2.83,2.61,3.94c1.11,1.11,2.41,1.99,3.9,2.61c1.48,0.63,3.09,0.94,4.8,0.94h24.6
				c5.08,0,9.87,0.96,14.36,2.87c4.48,1.92,8.4,4.54,11.74,7.89s5.97,7.26,7.89,11.74c1.91,4.49,2.87,9.27,2.87,14.36
				c0,5.09-0.96,9.86-2.87,14.31c-1.92,4.46-4.54,8.36-7.89,11.7c-3.34,3.34-7.26,5.99-11.74,7.93c-4.49,1.94-9.27,2.91-14.36,2.91
				h-54.6"/>
		</g>
	</g>
</g>
<g id="thiccer-text" class="st0">
	<g id="XMLID_20_" class="st1">
		<g id="XMLID_24_">
			<path id="XMLID_25_" class="st2" d="M170.7,175.77H74.14V37.86h27.6v110.31h68.96"/>
		</g>
		<g id="XMLID_21_">
			<path id="XMLID_22_" class="st2" d="M123.24,148.17h61.26c1.92,0,3.72-0.35,5.39-1.06c1.67-0.7,3.13-1.68,4.38-2.93
				c1.25-1.25,2.23-2.71,2.93-4.38c0.7-1.67,1.06-3.46,1.06-5.39s-0.35-3.72-1.06-5.39c-0.71-1.67-1.68-3.13-2.93-4.38
				c-1.25-1.25-2.71-2.23-4.38-2.93c-1.67-0.7-3.46-1.06-5.39-1.06h-27.6c-5.71,0-11.06-1.09-16.06-3.27
				c-5-2.18-9.38-5.15-13.13-8.9c-3.75-3.75-6.72-8.14-8.9-13.18c-2.18-5.03-3.27-10.4-3.27-16.11c0-5.71,1.09-11.06,3.27-16.06
				c2.18-5,5.15-9.38,8.9-13.13s8.13-6.72,13.13-8.9c5-2.18,10.35-3.27,16.06-3.27h63.28v27.6H156.9c-1.92,0-3.72,0.35-5.39,1.06
				c-1.67,0.71-3.13,1.68-4.38,2.93c-1.25,1.25-2.23,2.71-2.93,4.38c-0.71,1.67-1.06,3.46-1.06,5.39s0.35,3.74,1.06,5.43
				c0.7,1.7,1.68,3.17,2.93,4.42c1.25,1.25,2.71,2.23,4.38,2.93c1.67,0.71,3.46,1.06,5.39,1.06h27.6c5.71,0,11.07,1.07,16.11,3.22
				c5.03,2.15,9.43,5.1,13.18,8.85c3.75,3.75,6.7,8.14,8.85,13.18c2.15,5.03,3.22,10.4,3.22,16.11c0,5.71-1.07,11.06-3.22,16.06
				c-2.15,5-5.1,9.38-8.85,13.13c-3.75,3.75-8.14,6.72-13.18,8.9c-5.03,2.18-10.4,3.27-16.11,3.27h-61.26"/>
		</g>
	</g>
	<text id="XMLID_19_" transform="matrix(1 0 0 1 55.8003 241.0732)" class="st1 st6 st7">DESIGN CO.</text>
</g>
</svg>
